<svg width="117" height="36" viewBox="0 0 117 36" fill="none" xmlns="http://www.w3.org/2000/svg">
<path d="M9.81 30.24C7.15 30.24 5.02 29.74 3.42 28.74C1.82 27.72 1.02 26.17 1.02 24.09C1.02 22.99 1.21 22.15 1.59 21.57C1.97 20.99 2.53 20.7 3.27 20.7C3.81 20.7 4.25 20.84 4.59 21.12C4.93 21.4 5.1 21.76 5.1 22.2C5.1 22.6 5.07 22.95 5.01 23.25C5.01 23.33 4.99 23.47 4.95 23.67C4.93 23.87 4.92 24.08 4.92 24.3C4.92 25.2 5.37 25.87 6.27 26.31C7.19 26.75 8.47 26.97 10.11 26.97C11.81 26.97 13.14 26.67 14.1 26.07C15.06 25.45 15.54 24.59 15.54 23.49C15.54 22.81 15.32 22.23 14.88 21.75C14.44 21.25 13.89 20.84 13.23 20.52C12.57 20.18 11.64 19.77 10.44 19.29C8.9 18.69 7.64 18.12 6.66 17.58C5.7 17.04 4.87 16.31 4.17 15.39C3.49 14.45 3.15 13.29 3.15 11.91C3.15 10.47 3.53 9.19 4.29 8.07C5.07 6.95 6.18 6.08 7.62 5.46C9.08 4.84 10.79 4.53 12.75 4.53C14.21 4.53 15.55 4.75 16.77 5.19C17.99 5.61 18.96 6.26 19.68 7.14C20.42 8.02 20.79 9.1 20.79 10.38C20.79 11.64 20.6 12.59 20.22 13.23C19.84 13.87 19.28 14.19 18.54 14.19C18.02 14.19 17.58 14.03 17.22 13.71C16.88 13.39 16.71 13.01 16.71 12.57C16.71 12.19 16.74 11.84 16.8 11.52C16.86 10.92 16.89 10.54 16.89 10.38C16.89 9.54 16.48 8.9 15.66 8.46C14.84 8.02 13.82 7.8 12.6 7.8C10.88 7.8 9.56 8.12 8.64 8.76C7.74 9.38 7.29 10.26 7.29 11.4C7.29 12.16 7.52 12.81 7.98 13.35C8.46 13.89 9.05 14.34 9.75 14.7C10.45 15.06 11.43 15.49 12.69 15.99C14.21 16.61 15.43 17.17 16.35 17.67C17.27 18.17 18.05 18.85 18.69 19.71C19.35 20.57 19.68 21.63 19.68 22.89C19.68 25.25 18.78 27.07 16.98 28.35C15.2 29.61 12.81 30.24 9.81 30.24ZM24.4043 30.15C23.5043 30.15 22.7643 29.74 22.1843 28.92C21.6243 28.08 21.3443 27.04 21.3443 25.8C21.3443 24.3 21.4443 22.93 21.6443 21.69C21.8443 20.43 22.1743 19.1 22.6343 17.7C22.8343 17.1 23.1143 16.67 23.4743 16.41C23.8343 16.15 24.4043 16.02 25.1843 16.02C25.6243 16.02 25.9243 16.09 26.0843 16.23C26.2643 16.37 26.3543 16.58 26.3543 16.86C26.3543 17.02 26.2443 17.56 26.0243 18.48C25.8243 19.22 25.6643 19.89 25.5443 20.49C25.1443 22.59 24.9443 23.99 24.9443 24.69C24.9443 25.11 24.9943 25.41 25.0943 25.59C25.1943 25.75 25.3543 25.83 25.5743 25.83C25.8743 25.83 26.2443 25.53 26.6843 24.93C27.1443 24.33 27.6243 23.42 28.1243 22.2C28.6443 20.98 29.1443 19.48 29.6243 17.7C29.7843 17.1 30.0243 16.67 30.3443 16.41C30.6843 16.15 31.1843 16.02 31.8443 16.02C32.3043 16.02 32.6243 16.08 32.8043 16.2C32.9843 16.3 33.0743 16.5 33.0743 16.8C33.0743 17.3 32.8243 18.67 32.3243 20.91C31.7643 23.47 31.4843 25.05 31.4843 25.65C31.4843 26.03 31.5643 26.33 31.7243 26.55C31.8843 26.75 32.0943 26.85 32.3543 26.85C32.7543 26.85 33.2243 26.61 33.7643 26.13C34.3243 25.63 35.0643 24.83 35.9843 23.73C36.2243 23.45 36.4943 23.31 36.7943 23.31C37.0543 23.31 37.2543 23.43 37.3943 23.67C37.5543 23.91 37.6343 24.24 37.6343 24.66C37.6343 25.46 37.4443 26.08 37.0643 26.52C36.2043 27.58 35.2743 28.45 34.2743 29.13C33.2943 29.81 32.1743 30.15 30.9143 30.15C29.9543 30.15 29.2443 29.78 28.7843 29.04C28.3443 28.3 28.1243 27.26 28.1243 25.92C27.7843 27.28 27.2743 28.33 26.5943 29.07C25.9143 29.79 25.1843 30.15 24.4043 30.15ZM50.4117 20.79C50.6717 20.79 50.8717 20.92 51.0117 21.18C51.1517 21.44 51.2217 21.77 51.2217 22.17C51.2217 22.67 51.1517 23.06 51.0117 23.34C50.8717 23.6 50.6517 23.78 50.3517 23.88C49.1517 24.3 47.8317 24.54 46.3917 24.6C45.9917 26.26 45.2317 27.6 44.1117 28.62C43.0117 29.64 41.7917 30.15 40.4517 30.15C38.4317 30.15 36.9617 29.38 36.0417 27.84C35.1217 26.3 34.6617 24.07 34.6617 21.15C34.6617 18.57 34.9817 15.77 35.6217 12.75C36.2617 9.71 37.1917 7.13 38.4117 5.01C39.6517 2.87 41.1217 1.8 42.8217 1.8C43.7417 1.8 44.4817 2.2 45.0417 3C45.6017 3.78 45.8817 4.8 45.8817 6.06C45.8817 7.7 45.5717 9.33 44.9517 10.95C44.3317 12.57 43.3017 14.27 41.8617 16.05C43.2017 16.15 44.2917 16.71 45.1317 17.73C45.9717 18.73 46.4717 19.97 46.6317 21.45C47.5717 21.39 48.6917 21.19 49.9917 20.85C50.1117 20.81 50.2517 20.79 50.4117 20.79ZM42.1317 4.77C41.7317 4.77 41.2917 5.37 40.8117 6.57C40.3517 7.75 39.9217 9.36 39.5217 11.4C39.1217 13.44 38.8217 15.67 38.6217 18.09C39.9417 15.67 40.9917 13.54 41.7717 11.7C42.5717 9.84 42.9717 8.19 42.9717 6.75C42.9717 6.11 42.8917 5.62 42.7317 5.28C42.5917 4.94 42.3917 4.77 42.1317 4.77ZM40.5717 26.97C41.1917 26.97 41.7417 26.71 42.2217 26.19C42.7017 25.67 43.0217 24.92 43.1817 23.94C42.5617 23.52 42.0817 22.97 41.7417 22.29C41.4217 21.61 41.2617 20.89 41.2617 20.13C41.2617 19.85 41.3017 19.47 41.3817 18.99H41.2917C40.4717 18.99 39.7817 19.4 39.2217 20.22C38.6817 21.02 38.4117 22.1 38.4117 23.46C38.4117 24.6 38.6217 25.47 39.0417 26.07C39.4817 26.67 39.9917 26.97 40.5717 26.97ZM53.4014 30.15C52.6614 30.15 52.1314 29.99 51.8114 29.67C51.4914 29.33 51.3314 28.7 51.3314 27.78C51.3314 27.16 51.3914 26.41 51.5114 25.53C51.6314 24.65 51.8414 23.32 52.1414 21.54C52.1814 21.3 52.3414 20.33 52.6214 18.63C52.9014 16.91 53.1514 15.11 53.3714 13.23C53.5714 11.63 53.6714 10.43 53.6714 9.63C53.6714 8.73 53.3414 8.28 52.6814 8.28C52.1814 8.28 51.5514 8.55 50.7914 9.09C50.0514 9.61 49.2514 10.45 48.3914 11.61C48.1114 11.99 47.8014 12.18 47.4614 12.18C47.1814 12.18 46.9314 12.05 46.7114 11.79C46.5114 11.51 46.4114 11.2 46.4114 10.86C46.4114 10.52 46.4714 10.2 46.5914 9.9C46.7114 9.58 46.9314 9.2 47.2514 8.76C48.2314 7.42 49.3214 6.39 50.5214 5.67C51.7214 4.93 52.9814 4.56 54.3014 4.56C55.4014 4.56 56.2214 4.9 56.7614 5.58C57.3214 6.26 57.6014 7.25 57.6014 8.55C57.6014 9.71 57.4414 11.39 57.1214 13.59C58.1214 10.63 59.3914 8.39 60.9314 6.87C62.4714 5.33 64.2814 4.56 66.3614 4.56C68.0014 4.56 69.2314 5.03 70.0514 5.97C70.8914 6.89 71.3114 8.13 71.3114 9.69C71.3114 10.57 71.1814 11.64 70.9214 12.9L69.0914 21.48C68.8914 22.48 68.7914 23.34 68.7914 24.06C68.7914 24.9 68.9814 25.53 69.3614 25.95C69.7614 26.37 70.3114 26.58 71.0114 26.58C71.6714 26.58 72.3114 26.36 72.9314 25.92C73.5714 25.48 74.3214 24.75 75.1814 23.73C75.4214 23.45 75.6914 23.31 75.9914 23.31C76.2514 23.31 76.4514 23.43 76.5914 23.67C76.7514 23.91 76.8314 24.24 76.8314 24.66C76.8314 25.44 76.6414 26.06 76.2614 26.52C75.2214 27.78 74.1914 28.7 73.1714 29.28C72.1514 29.86 71.0814 30.15 69.9614 30.15C68.2614 30.15 66.9314 29.65 65.9714 28.65C65.0114 27.63 64.5314 26.27 64.5314 24.57C64.5314 23.91 64.5814 23.19 64.6814 22.41C64.8014 21.63 64.9914 20.64 65.2514 19.44L66.4514 13.95C66.4914 13.77 66.5614 13.45 66.6614 12.99C66.7614 12.53 66.8414 12.1 66.9014 11.7C66.9614 11.28 66.9914 10.87 66.9914 10.47C66.9914 9.83 66.8114 9.32 66.4514 8.94C66.0914 8.56 65.5814 8.37 64.9214 8.37C63.7214 8.37 62.5214 9.01 61.3214 10.29C60.1214 11.57 59.0114 13.64 57.9914 16.5C56.9714 19.34 56.1714 22.98 55.5914 27.42C55.4514 28.44 55.2414 29.15 54.9614 29.55C54.7014 29.95 54.1814 30.15 53.4014 30.15ZM77.5751 14.04C76.7351 14.04 76.1051 13.85 75.6851 13.47C75.2651 13.07 75.0551 12.52 75.0551 11.82C75.0551 11.12 75.3251 10.54 75.8651 10.08C76.4251 9.6 77.1151 9.36 77.9351 9.36C78.6751 9.36 79.2751 9.54 79.7351 9.9C80.1951 10.26 80.4251 10.77 80.4251 11.43C80.4251 12.23 80.1651 12.87 79.6451 13.35C79.1251 13.81 78.4351 14.04 77.5751 14.04ZM77.3351 30.15C76.0351 30.15 75.0851 29.69 74.4851 28.77C73.9051 27.85 73.6151 26.63 73.6151 25.11C73.6151 24.21 73.7251 23.06 73.9451 21.66C74.1851 20.24 74.4851 18.92 74.8451 17.7C75.0251 17.06 75.2651 16.62 75.5651 16.38C75.8651 16.14 76.3451 16.02 77.0051 16.02C78.0251 16.02 78.5351 16.36 78.5351 17.04C78.5351 17.54 78.3451 18.7 77.9651 20.52C77.4851 22.72 77.2451 24.21 77.2451 24.99C77.2451 25.59 77.3251 26.05 77.4851 26.37C77.6451 26.69 77.9151 26.85 78.2951 26.85C78.6551 26.85 79.1051 26.6 79.6451 26.1C80.1851 25.6 80.9051 24.81 81.8051 23.73C82.0451 23.45 82.3151 23.31 82.6151 23.31C82.8751 23.31 83.0751 23.43 83.2151 23.67C83.3751 23.91 83.4551 24.24 83.4551 24.66C83.4551 25.46 83.2651 26.08 82.8851 26.52C80.9051 28.94 79.0551 30.15 77.3351 30.15ZM86.0079 30.15C84.0479 30.15 82.5179 29.6 81.4179 28.5C80.3379 27.38 79.7979 25.91 79.7979 24.09C79.7979 22.47 80.1179 21.05 80.7579 19.83C81.3979 18.61 82.2279 17.67 83.2479 17.01C84.2679 16.35 85.3379 16.02 86.4579 16.02C87.5579 16.02 88.4079 16.35 89.0079 17.01C89.6279 17.65 89.9379 18.48 89.9379 19.5C89.9379 20.34 89.7479 21.05 89.3679 21.63C89.0079 22.21 88.5279 22.5 87.9279 22.5C87.5479 22.5 87.2379 22.41 86.9979 22.23C86.7779 22.05 86.6679 21.8 86.6679 21.48C86.6679 21.34 86.6879 21.18 86.7279 21C86.7679 20.82 86.7979 20.69 86.8179 20.61C86.9179 20.31 86.9679 20.03 86.9679 19.77C86.9679 19.51 86.8979 19.31 86.7579 19.17C86.6379 19.03 86.4579 18.96 86.2179 18.96C85.7579 18.96 85.3279 19.17 84.9279 19.59C84.5279 19.99 84.2079 20.54 83.9679 21.24C83.7279 21.94 83.6079 22.71 83.6079 23.55C83.6079 25.87 84.6179 27.03 86.6379 27.03C87.4579 27.03 88.3379 26.76 89.2779 26.22C90.2379 25.66 91.1779 24.83 92.0979 23.73C92.3379 23.45 92.6079 23.31 92.9079 23.31C93.1679 23.31 93.3679 23.43 93.5079 23.67C93.6679 23.91 93.7479 24.24 93.7479 24.66C93.7479 25.42 93.5579 26.04 93.1779 26.52C92.2379 27.68 91.1079 28.58 89.7879 29.22C88.4879 29.84 87.2279 30.15 86.0079 30.15ZM107.223 23.31C107.483 23.31 107.683 23.43 107.823 23.67C107.983 23.91 108.063 24.24 108.063 24.66C108.063 25.46 107.873 26.08 107.493 26.52C106.573 27.58 105.623 28.45 104.643 29.13C103.683 29.81 102.583 30.15 101.343 30.15C100.323 30.15 99.5528 29.86 99.0328 29.28C98.5128 28.68 98.2528 27.82 98.2528 26.7C98.2528 26.14 98.3928 25.14 98.6728 23.7C98.9328 22.44 99.0628 21.57 99.0628 21.09C99.0628 20.77 98.9528 20.61 98.7328 20.61C98.4728 20.61 98.1028 20.95 97.6228 21.63C97.1428 22.29 96.6628 23.17 96.1828 24.27C95.7028 25.37 95.3128 26.53 95.0128 27.75C94.6328 29.35 93.6928 30.15 92.1928 30.15C91.5928 30.15 91.1928 29.94 90.9928 29.52C90.8128 29.08 90.7228 28.3 90.7228 27.18C90.7228 26.54 90.7328 26.03 90.7528 25.65L90.7828 23.25C90.7828 20.17 91.0928 16.96 91.7128 13.62C92.3528 10.28 93.2828 7.48 94.5028 5.22C95.7428 2.94 97.2228 1.8 98.9428 1.8C99.8628 1.8 100.603 2.2 101.163 3C101.743 3.78 102.033 4.8 102.033 6.06C102.033 8.08 101.443 10.18 100.263 12.36C99.0828 14.52 97.1628 17.05 94.5028 19.95C94.4428 20.99 94.4128 22.06 94.4128 23.16C95.0728 21.46 95.8028 20.08 96.6028 19.02C97.4228 17.94 98.2228 17.17 99.0028 16.71C99.8028 16.25 100.533 16.02 101.193 16.02C102.493 16.02 103.143 16.67 103.143 17.97C103.143 18.75 102.923 20.16 102.483 22.2C102.103 23.94 101.913 25.09 101.913 25.65C101.913 26.45 102.203 26.85 102.783 26.85C103.183 26.85 103.653 26.61 104.193 26.13C104.753 25.63 105.493 24.83 106.413 23.73C106.653 23.45 106.923 23.31 107.223 23.31ZM98.3128 4.77C97.9528 4.77 97.5528 5.29 97.1128 6.33C96.6728 7.35 96.2428 8.74 95.8228 10.5C95.4228 12.24 95.0928 14.14 94.8328 16.2C96.0728 14.74 97.0928 13.15 97.8928 11.43C98.7128 9.71 99.1228 8.15 99.1228 6.75C99.1228 6.11 99.0528 5.62 98.9128 5.28C98.7728 4.94 98.5728 4.77 98.3128 4.77ZM115.621 24.21C115.881 24.21 116.081 24.33 116.221 24.57C116.381 24.81 116.461 25.14 116.461 25.56C116.461 26.28 116.291 26.9 115.951 27.42C115.391 28.28 114.651 28.95 113.731 29.43C112.831 29.91 111.751 30.15 110.491 30.15C108.571 30.15 107.081 29.58 106.021 28.44C104.961 27.28 104.431 25.72 104.431 23.76C104.431 22.38 104.721 21.1 105.301 19.92C105.881 18.72 106.681 17.77 107.701 17.07C108.741 16.37 109.911 16.02 111.211 16.02C112.371 16.02 113.301 16.37 114.001 17.07C114.701 17.75 115.051 18.68 115.051 19.86C115.051 21.24 114.551 22.43 113.551 23.43C112.571 24.41 110.891 25.19 108.511 25.77C108.991 26.69 109.801 27.15 110.941 27.15C111.761 27.15 112.431 26.96 112.951 26.58C113.491 26.2 114.111 25.56 114.811 24.66C115.051 24.36 115.321 24.21 115.621 24.21ZM110.701 18.96C109.961 18.96 109.331 19.39 108.811 20.25C108.311 21.11 108.061 22.15 108.061 23.37V23.43C109.241 23.15 110.171 22.73 110.851 22.17C111.531 21.61 111.871 20.96 111.871 20.22C111.871 19.84 111.761 19.54 111.541 19.32C111.341 19.08 111.061 18.96 110.701 18.96Z" fill="white"/>
</svg>
